<svg width="800" height="500" viewBox="0 0 800 500" fill="none" xmlns="http://www.w3.org/2000/svg">
  <rect width="800" height="500" fill="#0F172A"/>
  <!-- Dashboard mockup -->
  <rect x="50" y="50" width="700" height="400" rx="16" fill="#1E293B" stroke="#334155" stroke-width="2"/>
  <!-- Sidebar -->
  <rect x="50" y="50" width="180" height="400" rx="16" fill="#0F172A"/>
  <rect x="70" y="80" width="140" height="40" rx="8" fill="#14B8A6"/>
  <rect x="70" y="140" width="100" height="12" rx="4" fill="#475569"/>
  <rect x="70" y="170" width="120" height="12" rx="4" fill="#475569"/>
  <rect x="70" y="200" width="80" height="12" rx="4" fill="#475569"/>
  <rect x="70" y="230" width="110" height="12" rx="4" fill="#475569"/>
  <!-- Main content area -->
  <rect x="250" y="70" width="480" height="60" rx="8" fill="#0F172A"/>
  <text x="270" y="108" font-family="system-ui" font-size="24" font-weight="600" fill="white">Project Dashboard</text>
  <!-- Kanban columns -->
  <rect x="250" y="150" width="150" height="280" rx="12" fill="#0F172A"/>
  <rect x="270" y="170" width="110" height="16" rx="4" fill="#64748B"/>
  <rect x="270" y="200" width="110" height="80" rx="8" fill="#1E293B" stroke="#14B8A6" stroke-width="2"/>
  <rect x="270" y="295" width="110" height="60" rx="8" fill="#1E293B"/>
  <rect x="415" y="150" width="150" height="280" rx="12" fill="#0F172A"/>
  <rect x="435" y="170" width="110" height="16" rx="4" fill="#64748B"/>
  <rect x="435" y="200" width="110" height="70" rx="8" fill="#1E293B"/>
  <rect x="435" y="285" width="110" height="90" rx="8" fill="#1E293B"/>
  <rect x="580" y="150" width="150" height="280" rx="12" fill="#0F172A"/>
  <rect x="600" y="170" width="110" height="16" rx="4" fill="#64748B"/>
  <rect x="600" y="200" width="110" height="50" rx="8" fill="#1E293B"/>
</svg>
