<svg width="800" height="500" viewBox="0 0 800 500" fill="none" xmlns="http://www.w3.org/2000/svg">
  <rect width="800" height="500" fill="#21759B"/>
  <!-- WordPress website mockup -->
  <rect x="100" y="50" width="600" height="400" rx="16" fill="white" stroke="#1A365D" stroke-width="3"/>
  <!-- Browser chrome -->
  <rect x="100" y="50" width="600" height="40" rx="16" fill="#F1F5F9"/>
  <circle cx="130" cy="70" r="8" fill="#EF4444"/>
  <circle cx="155" cy="70" r="8" fill="#FCD34D"/>
  <circle cx="180" cy="70" r="8" fill="#22C55E"/>
  <rect x="220" y="60" width="350" height="20" rx="10" fill="white" stroke="#CBD5E1" stroke-width="1"/>
  <!-- Navigation -->
  <rect x="120" y="110" width="560" height="50" fill="white"/>
  <rect x="140" y="125" width="80" height="20" rx="4" fill="#21759B"/>
  <rect x="480" y="125" width="60" height="12" rx="4" fill="#64748B"/>
  <rect x="560" y="125" width="50" height="12" rx="4" fill="#64748B"/>
  <rect x="630" y="125" width="40" height="12" rx="4" fill="#64748B"/>
  <!-- Hero section -->
  <rect x="120" y="170" width="560" height="150" fill="#F8FAFC"/>
  <rect x="180" y="200" width="280" height="24" rx="4" fill="#1E293B"/>
  <rect x="180" y="240" width="220" height="14" rx="4" fill="#64748B"/>
  <rect x="180" y="265" width="100" height="32" rx="8" fill="#21759B"/>
  <rect x="500" y="190" width="140" height="110" rx="12" fill="#21759B"/>
  <!-- Content blocks -->
  <rect x="120" y="340" width="170" height="90" rx="12" fill="#F1F5F9"/>
  <rect x="135" y="355" width="140" height="12" rx="4" fill="#334155"/>
  <rect x="135" y="375" width="120" height="10" rx="4" fill="#94A3B8"/>
  <rect x="135" y="395" width="100" height="10" rx="4" fill="#94A3B8"/>
  <rect x="310" y="340" width="170" height="90" rx="12" fill="#F1F5F9"/>
  <rect x="325" y="355" width="140" height="12" rx="4" fill="#334155"/>
  <rect x="325" y="375" width="130" height="10" rx="4" fill="#94A3B8"/>
  <rect x="325" y="395" width="110" height="10" rx="4" fill="#94A3B8"/>
  <rect x="500" y="340" width="170" height="90" rx="12" fill="#F1F5F9"/>
  <rect x="515" y="355" width="140" height="12" rx="4" fill="#334155"/>
  <rect x="515" y="375" width="125" height="10" rx="4" fill="#94A3B8"/>
  <rect x="515" y="395" width="105" height="10" rx="4" fill="#94A3B8"/>
  <!-- Coming soon overlay text -->
  <text x="400" y="480" font-family="system-ui" font-size="14" font-weight="600" fill="white" text-anchor="middle" opacity="0.8">Work in Progress</text>
</svg>
